# xmcd
#
# Track frame offsets:
#	150
#	22369
#	44617
#	59840
#	76431
#	96859
#	115106
#	130142
#	145681
#	164558
#	184578
#	194062
#	207832
#	226084
#	246765
#	271376
#	300039
#
# Disc length: 4434 seconds
#
# Revision: 0
# Processed by: cddbd v1.5.1PL0 Copyright (c) Steve Scherf et al.
# Submitted via: dBpowerAMP V4.0
#
DISCID=f3115011
DTITLE=Various Artist - pink paradise
DYEAR=1900
DGENRE=
TTITLE0=Herbaliser - Sensual woman
TTITLE1=Tlc - Red Light Special
TTITLE2=Britney Spears - I'm A Slave 4 You
TTITLE3=Khia - My Neck, My Back
TTITLE4=One Ton - My Heart Belongs To Daddy
TTITLE5=George Michael - Roxanne
TTITLE6=Donna Summer - Love To Love You Baby
TTITLE7=Destiny's Child - Bootylicious
TTITLE8=Joe Cocker - You Can Leave Your Hat On
TTITLE9=Angie Stone - Wish I Didn't Miss You
TTITLE10=Peggy Lee - I'm A Woman
TTITLE11=Etta James - I Just Want To Make Love To You
TTITLE12=Snoop Dogg - Beautiful
TTITLE13=Billy Idol - Flesh For Fantasy
TTITLE14=David Bowie - China Girl
TTITLE15=Kylie Minogue - Can't Take You Out Of My Head
TTITLE16=DATA
EXTD=htttp://inzolite.blogtrafic.com
EXTT0=
EXTT1=
EXTT2=
EXTT3=
EXTT4=
EXTT5=
EXTT6=
EXTT7=
EXTT8=
EXTT9=
EXTT10=
EXTT11=
EXTT12=
EXTT13=
EXTT14=
EXTT15=
EXTT16=
PLAYORDER=
